<svg xmlns="http://www.w3.org/2000/svg" xmlns:xlink="http://www.w3.org/1999/xlink" xmlns:sketch="http://www.bohemiancoding.com/sketch/ns" width="400px" viewBox="0 0 400 400" version="1.1">
    <title>roo-logo</title>
    <defs/>
    <g id="roo-logo" sketch:type="MSArtboardGroup" fill="#333333">
            <path d="M184.352626 225.3 C189.982193 225.3 194.5 221.2 194.5 216.1 C194.545858 211.1 190 207 184.4 207 C178.723058 207 174.2 211.1 174.2 216.1 C174.159393 221.2 178.7 225.3 184.4 225.3 L184.352626 225.3 Z M289.671612 102.8 C290.300294 126.4 264.2 140.1 210.1 143.3 C225.089214 164.7 279.2 242.2 278.8 264.9 C278.355403 289.2 242.4 334.3 208.1 341.2 L208.114908 279.2 C208.114908 279.2 235.3 270.9 235.3 262.5 C235.319528 254 209.7 250.9 209.7 250.9 L193.541008 250.9 C193.541008 250.9 168.7 254 168.7 262.5 C168.679646 270.9 196.7 279.2 196.7 279.2 L196.6844 341.7 C162.392864 336.6 122.9 290 122.4 265.1 C122.100304 242.4 176.4 163.2 191.3 141.6 C138.674549 138.2 112.3 124.8 113 101.8 C113.584577 82.3 136.6 60 142.2 60 L142.67523 60 C145.189943 60.3 146.2 60.4 173 95.1 C183.710764 108.9 194.6 123.3 200.5 131.3 L258.18055 60.4 L260.638112 60.2 C266.239063 60.2 289.2 82.9 289.7 102.8 L289.671612 102.8 Z M218.330067 225.3 C223.959634 225.3 228.5 221.2 228.5 216.1 C228.523299 211.1 224 207 218.3 207 C212.700499 207 208.1 211.1 208.1 216.1 C208.136834 221.2 212.7 225.3 218.3 225.3 L218.330067 225.3 Z" id="Shape-2" sketch:type="MSShapeGroup"/>
    </g>
</svg>